<?xml version="1.0" encoding="utf-8"?>
<!-- Generator: Adobe Illustrator 21.1.0, SVG Export Plug-In . SVG Version: 6.00 Build 0)  -->
<svg version="1.1" id="map" xmlns="http://www.w3.org/2000/svg" xmlns:xlink="http://www.w3.org/1999/xlink" x="0px" y="0px"
	 viewBox="0 0 1565 940" style="enable-background:new 0 0 1565 940;" xml:space="preserve">
<style type="text/css">
	.st0{fill:#FFFFFF;}
	.st1{fill:#E3E989;stroke:#FFFFFF;stroke-miterlimit:10;}
	.st2{fill:#94C93D;}
	.st3{fill:#DBA627;}
	.st4{fill:#E9E629;}
	.st5{fill:#D2D97E;}
</style>
<g id="bg-layer">
	<rect id="rect" class="st0" width="1565" height="940"/>
	<path id="no-click_2_" class="st1" d="M510.3,50.9c273.6-8.9,547.7-4.2,820.8,14c48.7,3.2,105.5,11.9,128.6,54.9
		c17.7,32.8,8.1,72.8,2.7,109.7c-27.4,186,63.7,379.7,12,560.5c-2.7,9.6-6.1,19.5-13.3,26.4c-6.8,6.6-16.3,9.6-25.5,12
		c-31.4,8-64,10.1-96.3,12.1c-404.8,25.8-812.3,51.6-1215.2,4.9c-5.3-0.6-11-1.5-14.6-5.4c-4.3-4.7-3.8-11.9-3.2-18.2
		c8.9-89.5-5.1-179.4-15.8-268.7C78,449.4,70.2,345.2,67,240.8c-1.6-53.2,2.8-116,47.7-144.5c20.3-12.9,45.1-15.8,69-18.1
		c115.2-11.5,198.7-24,314.6-26.1L510.3,50.9z"/>
	<path id="north-side" class="st2" d="M1048.5,112.6c-0.5-12.1-8.4-24.8-21-27.5c-41-9-83.2-14-125.3-14.3c-14-0.1-28,0.5-42,1.6
		c-0.6-0.2-1.1-0.3-1.6-0.4c-46.7-8.5-94.4-1.3-140.9,5.6c-2.1,0.3-4.1,0.6-6.2,0.9c-6.2-0.3-12.3-0.7-18.5-1.2
		c-38.5-3-76.9-9-115.6-5.6c-25.6,2.2-49.4,8-72.7,18.9c-12.7,5.9-17.1,25.5-9.7,36.8c7.2,10.9,17.3,18.3,29.9,21.7
		c9.7,2.6,19.9,2.8,29.9,3c20.6,0.4,41.2,0.8,61.8,0.5c20.6-0.2,41.2-0.5,61.8-0.7l31.9-0.4c7.3-0.1,14.5,0.1,21.7-1.7
		c2.6-0.6,5.1-1.3,7.7-2.1c2.1,0.6,4.3,0.8,6.5,0.5c16.6-1.7,33.2-3,49.9-3.6c7.8-0.3,16.2,0.2,24.1-0.7c32.3,2.6,64.5,5.5,96.8,7.3
		c17.2,1,34.3,1.7,51.5,2.2c8.6,0.3,17.2,0.5,25.8,0.6c4,0.1,7.9,0.1,11.9-0.3c6-0.7,11.3-1.4,16.6-4.2c3-1.6,6.3-4.9,9.1-7.3
		c2-1.7,3.6-3.9,4.8-6.4C1044,130.3,1048.9,121.2,1048.5,112.6z"/>
	<path id="creek" class="st2" d="M479.4,136.4c-5.6-22.2-25.6-34-47.1-36.4c-6.5-1.9-12.6-1.7-19.6-0.5c-1.9,0.3-3.7,1-5.4,1.9
		c-7.7,1.5-15.4,3.7-22.5,6.2c-2.9,1-5.7,2.1-8.6,3.2c-7.2,0.7-12.4,2.7-19.5,5.9c-2.4,1.1-4.9,3.1-7.1,5.4
		c-3.2,1.4-6.3,2.9-9.5,4.3c-1.6,0.7-3.2,1.5-4.9,2.2c0,0,0.1,0,0.2,0c-0.2,0.1-0.3,0.1-0.5,0.2c-0.5,0.2-1.1,0.4-1.7,0.6
		c-2.4,1-4.9,2.1-7.3,3c-7.2,2.7-14.5,5.1-21.8,7.3c-14.1,4.2-28.5,7.8-42.9,10.9c-13.1,2.8-26.2,5.5-39.2,8.5
		c-3.8-0.2-7.6-0.3-11.4-0.2c-25.5,0.7-49.7,7.4-72.5,18.7c-2.9,1.5-5.5,3.5-7.7,5.8c-4.7,1.9-9.2,4-13.2,6.7
		c-11.4,7.4-19.6,18-22.4,30.9c-1.9,2.1-3.7,4.2-5.5,6.4c-4,5.1-6.9,9.6-7.8,16.3c-0.8,5.8-0.1,12.3,3,17.5
		c2.4,20.5,18.7,34.3,38.8,37c8.4,1.1,16.1,0.8,24.6-1c8.1-1.7,16-5.6,23.4-8.9c7-3.1,13.9-6.4,20.9-9.6c0.1-0.1,0.2-0.1,0.3-0.1
		c0.7-0.3,1.4-0.6,2.2-0.8c49.5-7.5,99.8-4.5,148.5,7.6c26.5,6.6,54.6,13.3,81.5,4.7c11.4-3.7,22.5-9.8,30.6-18.8
		c9.7-10.8,15.2-24.7,19.1-38.5c6.4-22.5,7.5-46.6,3.6-69.7C481,154.7,481.6,145.4,479.4,136.4z"/>
	<path id="no-click_1_" class="st3" d="M1064.3,202.1c0-19.8-16.2-36-36-36h-96c-19.8,0-50.8,0-69,0s-49.2,0-69,0h-252
		c-19.8,0-36,16.2-36,36v208c0,19.8,16.2,36,36,36h318c19.8,0,36-16.2,36-36v-74c0-19.8,16.2-36,36-36h96c19.8,0,36-16.2,36-36
		V202.1z"/>
	<path id="no-click" class="st3" d="M1062.3,708.1c0,19.8-16.2,36-36,36h-120c-19.8,0-36-16.2-36-36v-176c0-19.8,16.2-36,36-36h120
		c19.8,0,36,16.2,36,36V708.1z"/>
	<path id="upper-deck" class="st4" d="M688.8,369.1c-0.5-10.1-6.4-18.8-15.2-22.4c1.6-10.6-0.3-21.8-3.6-32.2
		c-2.9-9.3-7.9-18-17.1-22.3c-3.9-1.8-7.7-3.1-11.8-3.9c-3.2-0.6-6.5-1.1-9.7-1.1c-0.5,0-1.1,0-1.7,0c-2.8-0.7-5.7-1.1-8.5-1.3
		c-0.6,0-1.1-0.1-1.7-0.1c-0.5,0-1,0-1.5,0c-4.5-1.3-9.9-1.6-14.5-1.6c-2,0-3.9,0.1-5.9,0.1c-0.4,0-2.9,0.3-4.7,0.3
		c-0.6-8.8-1.9-17.7-2.6-26.4c-0.7-7.7-0.3-15.6-2-23.2c-0.6-2.9-1.8-5.9-2.1-8.8c0.1,0.7,0.2-3.7,0.1-4.2c0-1.1-0.1-2.2-0.2-3.4
		c3.1-13.4-8.7-26.3-22.5-22.5c-6,1.6-10.8,6.3-12.6,12.2c-5.8,0.3-11.4,3.1-14.3,8.9c-0.3,0.6-0.8,1.8-1.4,3
		c-0.6,0.8-1.1,1.6-1.1,1.6c-4.1,5.3-5.5,11.8-5.1,18.4c0.5,8.8,1.8,17.4,3.5,26c0.1,0.3,0.1,0.7,0.2,1c0,0.1,0,0.1,0,0.2
		c-0.2,1.6,0,3.4-0.1,5.1c-0.2,5.3-0.1,10.2,0.7,15.4c0.2,1.1,0.3,3.4,0.7,4.7c0,0.5,0,1.1,0,1.6c0,4.1,0,8.1,0,12.2
		c0,3.8,0.1,7.7,0,11.5c0,1.6-0.1,3.2-0.1,4.8c-0.2,0.9-0.4,1.7-0.6,2.6c-2.1,8.4-2.9,16.7-2.7,25.3c0.1,3.7,0.1,7.4,0.2,11.1
		c0.1,1.6,0.2,3.1,0.4,4.7c0.3,2.2,0.6,4.4,0.9,6.6c0.1,0.4,0.9,4.7,0.3,1.4c-0.6-2.9-0.1,0-0.1,0.8c0,0.7-0.1,1.4-0.1,2.1
		c0,3,0.2,6.1,1,9c1.4,4.8,3.9,9.4,7.6,12.7c6.5,5.8,14.8,8,23.4,7.8c6.8-0.2,13.9-0.4,20.3-2.5c4.3-1.4,8.3-3.4,12.3-5.3
		c4.8,0,9.6-0.3,14.2-2.1c1.9-0.8,3.8-1.6,5.5-2.5c2.9,0.5,5.8,0.9,8.7,1c4.9,0.3,9.9,0.3,14.8,0.4c4.2,0.1,8.5,0.6,12.7,0.4
		c3.4-0.2,7.2-0.6,10.4-1.8c0.9-0.3,1.7-0.7,2.6-1C678,393.3,689.2,381.1,688.8,369.1z M533.2,224.9c-0.1,0,0-0.1,0.2-0.4
		C533.3,224.7,533.2,224.9,533.2,224.9z M534.4,293.4L534.4,293.4L534.4,293.4z M628.5,334.8L628.5,334.8
		C629.1,334.3,629,334.4,628.5,334.8z M626.1,335.2L626.1,335.2c0-0.1,0-0.2,0-0.4C626.1,335,626.1,335.1,626.1,335.2z M662.1,393.5
		c0.2,0,0.4-0.1,0.6-0.1C662.5,393.4,662.3,393.4,662.1,393.5z"/>
	<path id="sunroom" class="st4" d="M859.3,385.5c-6-0.9-11.8-2.7-18-2.8c-4.6-0.1-9.3,0.1-13.9,0.1c-10,0.1-20,0.2-29.9,0.3
		c-11.8,0.1-23.4,0.6-35.1,2.3c-10.8,1.6-28.1,5.1-32.8,16c-3.5,8.2-3.7,17.3,3.1,24c0.2,0.2,0.4,0.4,0.7,0.7
		c2.1,2.1,5.1,3.9,8.3,4.8c4.3,1.9,8.9,3,13.4,3.1c4,0.1,8-0.5,12.1-0.4c5.2,0.2,10.3,1.1,15.5,1.3c4.6,0.2,9.2,0.1,13.8,0.1
		c9.7,0.1,19.3,0.2,29,0.3c4.2,0,8.3,0.1,12.5,0.1c0.8,0,1.5,0,2.3,0c1.7,0.5,3.3,0.9,5,1.2c7.2,1.3,13.9,1.1,20.4-2.7
		c5.5-3.2,10.7-9.5,12.2-15.8C880.8,405.4,874,387.8,859.3,385.5z"/>
	<path id="northeast-corner" class="st2" d="M1481.4,165.1c-2.1-15.7-14.6-25.1-29.8-26.3c-5.2-0.4-10.4-0.9-15.6-1.5
		c-7.3-1.1-14.6-2.6-21.6-5.1c-2.5-1.3-5-2.7-7.3-4.2c-1.3-1.1-2.4-2.3-3.6-3.6c-4.8-7.8-7.4-16.3-14.3-23.1
		c-9.1-8.8-22.4-13.8-34.3-17.5c-16.2-4.9-36.4-5.2-49.1,7.5c-11.6,11.6-12.3,31.3-1,43.2c4.8,5,10.3,7.7,16.1,9
		c1.5,1.1,3.1,2.1,4.6,2.9c30.1,41.6,83.4,64.9,134.2,51.9C1474.4,194.7,1483.4,179.7,1481.4,165.1z"/>
	<path id="front" class="st2" d="M1215.2,322.6c-0.6-8.9-1.9-18-4.9-26.5c-2.2-6.3-5-12.3-6.9-18.7c-3.7-12.4-5.3-25.2-8.5-37.7
		c-1.7-6.7-3.7-13.5-5.8-20.1c-1.6-5-3.8-10.4-6.4-15.2c-3.6-6.7-9.8-10.9-15.9-15.1c4-20-10.2-41-32.7-41
		c-11.9,0-23.1,6.5-29.1,16.7c-6.3,10.7-5.7,23.3,0,34.1c0.1,0.1,0.1,0.2,0.2,0.3c-0.5,12.6,0.5,24.6,2.4,37.1
		c2.2,18.1,4.3,36.9,3,55.1c-0.2,0.6-0.3,1.2-0.5,1.8c-2.6,4.9-5.7,9.5-9,14c-0.7,0.8-1.5,1.5-2.2,2.3c-2.6,1.6-5.2,3-8,4.4
		c-0.8,0.3-1.7,0.5-2.5,0.7c-6.9,0.4-13.8,0.1-20.7,0.9c-9.6,1.2-19.1,3.1-28.6,4.7c-3.3,0.1-6.5-0.1-9.8,0c-4.7,0.2-9.4,1.1-14,1.9
		c-4.2,0.3-8.4,0.2-12.7,0.3c-5.6,0.2-11,1.4-16.5,2.5c-2.8,0.2-5.6,0.4-8.5,0.7c-6.7,0.9-11.5,2.6-17.7,5.4c-6.7,3-13,8-17.8,13.6
		c-12.6,14.7-21.5,34.9-14.8,54.4c3.9,11.4,11.2,21.1,21.7,27.1c7.5,4.3,14.9,5.8,23.2,6.9c8.9,1.2,17.8,2.6,26.8,3
		c8.6,0.3,16.9-0.8,25.3-2c14.2-1.8,28.5-3.4,42.8-4.3c16-1,31.9-0.5,47.9-0.9c9.8-0.2,19.8-1.3,29.2-3.9
		c12.5-3.5,22.3-9.5,32.2-17.5c4.6-3.7,8.6-7.9,12.4-12.4c6.6-7.7,9.8-13.1,13.5-22.3c0.5-1.3,0.9-2.5,1.4-3.8
		c1.4-1.7,2.7-3.5,3.8-5.4c4.8-7.9,5.5-15.3,6.5-24.2C1214.8,333.8,1215.7,328.2,1215.2,322.6z"/>
	<path id="garage" class="st2" d="M859.8,677.7c-0.2-3.4-0.1-6.8-0.3-10.1c-0.5-6.8-1.6-13.6-2.9-20.3c-1.6-7.9-3.5-15.7-4.9-23.6
		c-0.9-8.9-1.2-18.1-1.3-27c0-2.5,0-4.9,0.3-7.4c0-0.1,0-0.4,0.1-0.6c0.1-0.5,0.1-1,0.2-1.2c1.1-6.9,2-13.9,2.7-20.9
		c1-10,1.2-20.1-0.1-30.1c-0.9-6.6-1.7-13.1-3.9-19.4c-0.8-2.3-1.6-4.5-2.4-6.7c-0.4-1.1-0.8-2.2-1.1-3.4c-0.1-0.2-0.2-0.6-0.3-1.1
		c0.7-11-6.9-21.6-19.5-21.6c-13.8,0-21.7,12.8-19.1,24.9c0.2,4.8,0.6,9.6,0.9,14.4c0.2,3,0.2,6-0.1,9c0,0.4,0,0.9,0,1.5l0,0
		c0,0.8-0.1,1.7-0.3,2.3c0,0.3-0.1,0.5-0.1,0.8c0,0.2-0.1,0.4-0.1,0.6c0.7,1.6-1.2,6.5-1.6,8.2c-0.7,3.1-1.5,6.1-2.4,9.2
		c-1.8,6-4.2,11.8-5.7,17.8c-3.6,13.8-4,27.9-4.4,42.1c-0.4,13,1.2,25.6,3,38.4c0.5,4.1,1,8.3,1.1,12.5c0.1,5-0.7,9.9-0.5,14.8
		c0.3,4.8,0.9,9.6,1.2,14.4c0.8,13.4,5.5,25.1,17.6,32.1c8.7,5.1,20.3,5.4,29.1,0c11.4-7,18.1-19.5,17.1-33
		C861.4,688.6,860.6,683.1,859.8,677.7z"/>
	<path id="veggie" class="st2" d="M1059.4,750.1c-5.9-0.9-10.2-1.4-16.3-0.2c-1.5,0.3-3,0.7-4.5,0.9c-1.4,0.3-2.8,0.5-4.2,0.7
		c-0.1,0-0.2,0-0.3,0c-6.1,0.5-12.2,1-18.4,1.2c-14,0.4-28.1-0.3-42.1,0.6c-3.2,0.2-6.3,0.6-9.4,1c-3.3,0.4-6.5,0.9-9.8,1.3
		c-0.4,0.1-0.9,0.2-1.5,0.3c-6,1.4-13,0.9-19.1,1.2c-6.8,0.3-13.5,0.5-20.3,0.8c-3.2,0.1-6.4,0.2-9.7,0.3c-0.2,0-2.5,0.2-4.1,0.2
		c-0.9-0.2-1.8-0.5-2.7-0.7c-15.8-4-31.8,7.7-31.8,24.3c0,16.5,16,28.2,31.8,24.3c0.9-0.2,1.8-0.5,2.7-0.7c0.1,0,0.3-0.1,0.4-0.1
		c1.1,0.1,2.3,0.3,2.8,0.4c3.5,0.2,7.1,0.3,10.6,0.5c6.8,0.3,13.5,0.6,20.3,0.9c13.6,0.5,27.1-0.9,40.7-0.5
		c13.7,0.3,27.4,0.7,41.2,0.5c6.8-0.1,13.5-0.3,20.2-1c9.6-1,21.7-1.4,30-7c9.1-6.1,14.4-15.7,12.9-26.9
		C1077.5,763,1069.8,751.6,1059.4,750.1z M898.5,758.6c-0.3,0-0.5,0-0.6-0.1C898.2,758.5,898.3,758.5,898.5,758.6z M898,805.7
		c0.2-0.2,0.7-0.2,1.3-0.2C898.9,805.6,898.5,805.6,898,805.7z"/>
	<path id="south-easement" class="st2" d="M753.6,762.6c0.8,0.4,1.7,0.7,2.5,1.1c-6.2-2.7-12-6.3-18.1-9.1
		c-9.5-4.3-19.1-8-29.2-10.4c-13.9-3.4-28.3-5.9-42.4-8.4c-16.9-3-34.1-2.7-51.2-3.5c-15.4-0.7-30.8-0.6-46.3,0
		c-14.6,0.6-29.3,1.7-43.9,3c-15.9-1.9-31.9-3.4-47.8-5.4c-19-2.7-38-6.2-57.1-8.2c-18.1-1.9-36.7-2.7-55-2.1
		c-19.3,0.7-38.8,3.6-57.6,8.2c-17.1,4.2-33.5,10.4-50.1,16.3c-9.7,3.4-19.5,6.5-29.2,9.8c-9.1,3.1-17.8,7-26.4,11.2
		c-0.2,0-0.4,0.1-0.6,0.1c-8,1.3-16.5,9.1-20.4,15.7c-4.3,7.3-6.1,18.1-3.4,26.4c2.7,8.3,7.8,16.3,15.7,20.4
		c8.6,4.5,16.8,5,26.4,3.4c2.7-0.4,5.3-1.3,7.9-2.5c2.5,1.1,5,2,7.7,2.9c7.5,2.5,14.8,5.2,22.6,6.6c23.1,4,46.5,2.4,69.8,2.6
		c21.5,0.2,42.9-0.2,64.3-2.7c7-0.8,14-1.7,21-2.9c2.4-0.4,4.9-0.8,7.3-1.2c1.1-0.2,2.3-0.4,3.4-0.5c-0.1,0-0.2,0-0.3,0
		c0.1,0,0.2,0,0.3,0c0.1,0,0.2,0,0.2,0c3.3-0.5,2.6-0.1,0.5,0c4.6-0.2,9.3-1.1,13.9-1.5c5.6-0.5,11.2-0.9,16.8-1.2
		c9.6,0.9,19.2,1.7,28.9,2.5c17.5,1.4,35.1,2.4,52.6,1.2c16.4-1.2,32.8-2.8,49.2-4.8c0.6,0,1.1,0,1.7,0.1c12.5,0.5,25,1.3,37.4,2.2
		c2.4,0.2,4.9,0.3,7.3,0.5c11.7,3.5,23.6,6.6,35.6,9c15.3,3.1,30.4,6.6,45.7,9.2c0.2,0.5,0.5,0.9,0.7,1.4
		c4.9,10.6,19,17.9,30.3,17.4c9.3-0.4,18.1-3.6,24.8-10.3c6.5-6.5,9.7-14.7,10-22.9c2.9-4,5.1-8.5,6.6-13.6
		c3.7-13,0.9-26.9-5.7-38.4C773.8,773,764.3,767.3,753.6,762.6z"/>
	<path id="back-yard" class="st5" d="M753,587.5c-0.2-11.6-1-24.2-4.8-35.2c-8.7-25.2-27.7-42.7-53.3-50.1
		c-16.9-4.9-35.4-5.2-52.8-3.5c-26.7,2.6-53.4,6.1-80,10c-16.8,2.5-33.4,5.6-50.1,8.4c-7.7-2.4-15.2-5.2-22.6-8.2
		c-13.1-5.8-26-12.4-38.1-20.2c-3.3-9.9-8.3-19.4-16.3-26.4c-1.4-1.3-2.9-2.4-4.3-3.5c0.1-4.2,0.4-8.5,0.9-12.7
		c2.3-15.3,5.4-30.9,4.1-46.3c-1.8-21.1-8.7-40.9-23.5-56.4c-8.1-15.7-21.8-28-40.6-31.8c-8-1.6-16.1-1.8-24-0.9
		c-10.7-2.4-21.5-4.2-32.1-5.7c-21.3-3-42.7-5.6-64.1-3.6c-10.8,1-21.8,2.3-32.3,5.1c-10.1,2.7-19.8,6.7-29.3,11.1
		c-34.8,16.2-60.3,48.6-69.7,85.6c-9,35.4-5.4,71.9,0.8,107.4c2.2,12.7,5.1,25.3,9,37.5c0.5,16.6,2.1,33.3,6.1,48.9
		c4.1,15.9,11.8,30.2,22.8,42.4c10.9,12.1,25.9,19.7,41.1,24.9c12.5,4.3,26.1,5.7,39.2,7.1c13,1.4,26.1,2.1,39.2,2.4
		c9.3,0.2,18.6,0.3,27.9,0.3c22.5,4.2,45.2,6.8,67.9,8.4c29,2,58.1,2,87.1,0.6c37.9,5.4,75.8,11.4,114,13.9
		c20.8,1.4,41.8,1.8,62.5-0.1c23.7-2.2,47.1-5.3,68.4-16.6c22.2-11.9,38.3-34.4,43.6-58.9C752,610.5,753.2,598.9,753,587.5z"/>
	<path id="front-yard" class="st5" d="M1452.3,444.7c-2.1-39.7-5-80.4-18-118.3c-8.7-25.4-20.6-47.7-37.3-68.5
		c-13.9-17.3-32.2-29.2-49.9-42.2c-3.4-2.8-6.5-5.8-9.5-9c-7.5-10.9-13.8-22.2-24.6-30.5c-19.6-15.2-44.1-18-66.3-6.5
		c-7.9,4.1-13.7,12-17.1,20c-3.9,9.2-3.8,17.3-2.1,27.2c2.7,15.7,12.8,27,24.2,36.7c-1.8,5.7-2.1,12-0.5,18.4
		c3.2,12.8,6.9,25.6,9,38.7c1.5,13.6,2.1,27.2,0.7,40.9c-1.3,7.7-3.3,15.2-6,22.5c-2.2,4.6-4.8,9.1-7.7,13.3
		c-3.1,3.6-6.6,7-10.2,10.1c-9.8,6.9-20.5,12.3-31.4,17.1c-37.1,15.1-76.9,27.4-103.9,58.8c-10,11.6-16.8,23-22.3,37.3
		c-4.8,12.4-6.5,26.2-7.2,39.5c-1,21.1,2.6,42.2,3.2,63.3c0.5,21.9,0.1,44.6,7,65.7c8.6,26.3,25.6,48.9,50.1,62.3
		c21.7,12,44.7,16.1,69.1,18.5c23.3,2.3,47.6,3.2,70.5-2.3c16.4-3.9,30.9-12.2,43.5-23.3c5.9-5.2,10.9-11.8,15.1-18.4
		c0.3-0.4,0.5-0.9,0.8-1.3c7-3.1,13.7-6.7,20.2-10.7c43.2-26.7,71.7-69.3,87.7-116.8c8-23.7,11.3-49,13-73.8
		C1454.2,490.4,1453.5,467.5,1452.3,444.7z"/>
</g>
</svg>
